<?xml version="1.0" encoding="UTF-8" standalone="no"?><svg xmlns="http://www.w3.org/2000/svg" xmlns:xlink="http://www.w3.org/1999/xlink" fill="#000000" height="500.2" preserveAspectRatio="xMidYMid meet" version="1" viewBox="0.0 0.0 500.1 500.2" width="500.1" zoomAndPan="magnify"><defs><clipPath id="a"><path d="M 0 0 L 500.101562 0 L 500.101562 500.199219 L 0 500.199219 Z M 0 0"/></clipPath></defs><g><g clip-path="url(#a)" id="change1_1"><path d="M 371.199219 445.398438 L 300 358.199219 C 299.699219 357.800781 299.398438 357.398438 299.101562 357.101562 L 258.199219 307 L 292.898438 264.5 L 413.199219 411.898438 C 400.601562 424.601562 386.5 435.800781 371.199219 445.398438 Z M 212.5 476.898438 L 245.601562 436.300781 L 279.601562 478 C 269.898438 479.300781 260 480 249.898438 480 C 237.199219 480 224.699219 478.898438 212.5 476.898438 Z M 190.601562 472.199219 C 172.800781 467.398438 155.800781 460.601562 140 451.898438 L 245.398438 322.800781 L 279 363.898438 Z M 353.5 455.300781 C 337.398438 463.398438 320.199219 469.699219 302.300781 473.898438 L 258.699219 420.398438 L 291.898438 379.699219 Z M 86.699219 411.800781 L 250 211.800781 L 280.101562 248.601562 L 122.699219 441.398438 C 109.699219 432.800781 97.699219 422.800781 86.699219 411.800781 Z M 250 20 C 373.5 20 474.5 117.800781 479.699219 240 L 440.699219 240 C 435.199219 141.199219 353.101562 61.898438 253.300781 61.300781 C 252.898438 61.300781 252.5 61.300781 252.199219 61.300781 C 202.5 61.300781 155.5 80.800781 119.699219 116.199219 C 85.898438 149.699219 66.199219 193.300781 63.601562 240 L 20.300781 240 C 25.5 117.800781 126.5 20 250 20 Z M 439.800781 379.699219 C 435.699219 385.601562 431.398438 391.398438 426.800781 396.898438 L 412.800781 379.699219 Z M 468.398438 322.101562 C 464.101562 335.199219 458.699219 347.699219 452.199219 359.699219 L 396.601562 359.699219 L 365.898438 322.101562 Z M 431 260 L 479.699219 260 C 479.101562 274.398438 477.101562 288.5 473.898438 302.101562 L 349.5 302.101562 L 315.199219 260 Z M 201.199219 240 L 143.5 240 C 151.300781 187.898438 195.800781 147.898438 249 147.101562 C 249.5 147.101562 250.101562 147.101562 250.601562 147.101562 C 303.898438 147.101562 349.898438 187.601562 357.800781 240 L 298.699219 240 L 257.601562 189.699219 C 253.800781 185 245.898438 185 242.101562 189.699219 Z M 378 240 C 369.800781 176 313.601562 126.300781 248.699219 127.101562 C 184.601562 128.101562 131.398438 177 123.398438 240 L 83.699219 240 C 86.300781 198.699219 103.800781 160.101562 133.800781 130.5 C 165.800781 98.800781 207.800781 81.300781 252.199219 81.300781 C 252.5 81.300781 252.898438 81.300781 253.199219 81.300781 C 342 81.800781 415.199219 152.101562 420.699219 240 Z M 150.398438 302.199219 C 150 302.101562 149.601562 302.101562 149.199219 302.101562 L 26 302.101562 C 22.800781 288.5 20.898438 274.398438 20.199219 260 L 184.800781 260 Z M 103.5 359.699219 L 47.898438 359.699219 C 41.398438 347.800781 36 335.199219 31.699219 322.101562 L 134.199219 322.101562 Z M 60.199219 379.699219 L 87.199219 379.699219 L 73.199219 396.898438 C 68.601562 391.300781 64.199219 385.601562 60.199219 379.699219 Z M 465.898438 375.898438 C 466.5 375.101562 467.101562 374.199219 467.5 373.199219 C 477.699219 355.300781 485.699219 336 491.300781 315.699219 C 491.5 315.101562 491.699219 314.5 491.800781 313.898438 C 497.199219 293.5 500.101562 272.101562 500.101562 250 C 500 112.101562 387.898438 0 250 0 C 112.101562 0 0 112.101562 0 250 C 0 272.101562 2.898438 293.398438 8.300781 313.800781 C 8.398438 314.601562 8.601562 315.300781 8.898438 316 C 14.398438 336.199219 22.398438 355.398438 32.601562 373.199219 C 33 374.199219 33.5 375.101562 34.199219 375.898438 C 43.101562 391.101562 53.5 405.300781 65.300781 418.300781 C 65.800781 419 66.398438 419.699219 67.101562 420.199219 C 67.199219 420.199219 67.199219 420.300781 67.300781 420.300781 C 82.398438 436.5 99.5 450.601562 118.300781 462.398438 C 118.398438 462.5 118.398438 462.5 118.5 462.601562 C 118.699219 462.800781 119 462.898438 119.300781 463.101562 C 141.199219 476.601562 165.300781 486.800781 190.898438 493 C 191.101562 493.101562 191.300781 493.101562 191.601562 493.199219 C 210.398438 497.699219 230 500.199219 250.101562 500.199219 C 294.800781 500.199219 336.800781 488.300781 373.199219 467.699219 C 374 467.398438 374.699219 467 375.398438 466.5 C 375.398438 466.5 375.398438 466.398438 375.5 466.398438 C 396.800781 454 416.199219 438.5 432.898438 420.601562 C 433 420.5 433 420.5 433.101562 420.5 C 433.800781 419.898438 434.398438 419.300781 434.898438 418.601562 C 446.601562 405.300781 457 391.101562 465.898438 375.898438" fill="#eb7f67"/></g></g></svg>